<svg width="22" height="22" viewBox="0 0 22 22" fill="none" xmlns="http://www.w3.org/2000/svg">
<path fill-rule="evenodd" clip-rule="evenodd" d="M8.64317 8.22162H12.0477V9.91746C12.5381 8.94212 13.7958 8.06579 15.685 8.06579C19.3068 8.06579 20.1666 10.0073 20.1666 13.5695V20.1667H16.4999V14.3807C16.4999 12.3521 16.0095 11.2081 14.761 11.2081C13.0294 11.2081 12.3098 12.441 12.3098 14.3798V20.1667H8.64317V8.22162ZM2.35575 20.0109H6.02242V8.06579H2.35575V20.0109ZM6.54767 4.17087C6.5478 4.47821 6.48685 4.78251 6.36836 5.06608C6.24986 5.34965 6.07618 5.60684 5.85742 5.82271C5.41412 6.26328 4.81408 6.50989 4.18909 6.50837C3.56519 6.50796 2.96654 6.26197 2.52259 5.82362C2.30461 5.60703 2.13152 5.34955 2.01323 5.06594C1.89494 4.78233 1.83378 4.47816 1.83325 4.17087C1.83325 3.55029 2.08075 2.95629 2.5235 2.51812C2.96706 2.07919 3.56597 1.8331 4.19 1.83337C4.81517 1.83337 5.41467 2.07996 5.85742 2.51812C6.29925 2.95629 6.54767 3.55029 6.54767 4.17087Z" fill="#FAFAFA"/>
</svg>
