<svg width="22" height="22" viewBox="0 0 22 22" fill="none" xmlns="http://www.w3.org/2000/svg">
<path d="M20.1483 10.4591C19.8366 5.14246 15.0058 1.04496 9.44161 1.96163C5.60995 2.59413 2.53911 5.70163 1.94328 9.5333C1.59495 11.7516 2.05328 13.8508 3.05245 15.5833L2.23661 18.6175C2.05328 19.305 2.68578 19.9283 3.36411 19.7358L6.35245 18.9108C7.70911 19.7083 9.29495 20.1666 10.9908 20.1666C16.1608 20.1666 20.4508 15.6108 20.1483 10.4591ZM15.4733 14.41C15.2522 14.8634 14.8745 15.2216 14.4099 15.4183C14.1349 15.5375 13.8324 15.5925 13.5116 15.5925C13.0441 15.5925 12.5399 15.4825 12.0174 15.2533C11.4606 15.0088 10.9319 14.7045 10.4408 14.3458C9.90911 13.9608 9.41411 13.53 8.93745 13.0625C8.46078 12.5858 8.03911 12.0816 7.65411 11.5591C7.27828 11.0366 6.97578 10.5141 6.75578 9.99163C6.53578 9.46913 6.42578 8.96496 6.42578 8.4883C6.42578 8.17663 6.48078 7.87413 6.59078 7.59913C6.70078 7.31496 6.87495 7.0583 7.12245 6.82913C7.41578 6.5358 7.73661 6.3983 8.07578 6.3983C8.20411 6.3983 8.33245 6.4258 8.45161 6.4808C8.57078 6.5358 8.68078 6.6183 8.76328 6.73746L9.82661 8.2408C9.90911 8.35996 9.97328 8.4608 10.0099 8.56163C10.0558 8.66246 10.0741 8.75413 10.0741 8.8458C10.0741 8.9558 10.0374 9.0658 9.97328 9.1758C9.90911 9.2858 9.82661 9.3958 9.71661 9.5058L9.36828 9.87247C9.31328 9.92747 9.29495 9.98247 9.29495 10.0558C9.29495 10.0925 9.30411 10.1291 9.31328 10.1658C9.33161 10.2025 9.34078 10.23 9.34995 10.2575C9.43245 10.4133 9.57911 10.6058 9.78078 10.8441C10.2099 11.3485 10.679 11.8175 11.1833 12.2466C11.4216 12.4483 11.6233 12.5858 11.7791 12.6683C11.8066 12.6775 11.8341 12.6958 11.8616 12.705C11.8983 12.7233 11.9349 12.7233 11.9808 12.7233C12.0633 12.7233 12.1183 12.6958 12.1733 12.6408L12.5216 12.2925C12.6408 12.1733 12.7508 12.0908 12.8516 12.0358C12.9616 11.9716 13.0624 11.935 13.1816 11.935C13.2733 11.935 13.3649 11.9533 13.4658 11.9991C13.5666 12.045 13.6766 12.1 13.7866 12.1825L15.3083 13.2641C15.4274 13.3466 15.5099 13.4475 15.5649 13.5575C15.6108 13.6766 15.6383 13.7866 15.6383 13.915C15.5833 14.0708 15.5466 14.245 15.4733 14.41V14.41Z" fill="white"/>
</svg>
