<svg width="65" height="63" viewBox="0 0 65 63" fill="none" xmlns="http://www.w3.org/2000/svg">
<rect x="4.86914" y="3.89221" width="56" height="54.4902" fill="#FFCA28"/>
<path d="M38.8691 49.2117L42.9922 46.5571C43.3153 47.5448 45.3614 49.8908 47.9461 49.8908C50.5307 49.8908 51.7307 48.5172 51.7307 47.6066C51.7307 45.1249 49.0915 44.25 47.8239 43.8297C47.6172 43.7612 47.447 43.7048 47.3307 43.6555C47.271 43.6302 47.1808 43.5966 47.0649 43.5536C45.6551 43.0294 40.4538 41.0958 40.4538 35.4909C40.4538 29.3173 46.5768 28.6073 47.9614 28.6073C48.8673 28.6073 53.223 28.7153 55.3922 32.6819L51.3922 35.3983C50.5153 33.6697 49.0583 33.0986 48.1614 33.0986C45.9461 33.0986 45.4845 34.679 45.4845 35.3983C45.4845 37.4168 47.8915 38.3215 49.9238 39.0854C50.4555 39.2853 50.9616 39.4755 51.3922 39.6735C53.6076 40.6921 56.8691 42.359 56.8691 47.6066C56.8691 50.2349 54.6035 54.4901 48.8999 54.4901C41.2384 54.4901 39.2076 50.0143 38.8691 49.2117Z" fill="#3E3E3E"/>
<path d="M18.8691 49.7389L23.1665 47.0856C23.5032 48.0728 24.8117 49.8931 26.7102 49.8931C28.6087 49.8931 29.5804 47.9957 29.5804 47.0856V29.1911H34.8655V47.0856C34.9511 49.5538 33.5443 54.4902 27.3356 54.4902C21.6271 54.4902 19.254 51.1889 18.8691 49.7389Z" fill="#3E3E3E"/>
</svg>
