<svg width="67" height="64" viewBox="0 0 67 64" fill="none" xmlns="http://www.w3.org/2000/svg">
<circle cx="34.0049" cy="32" r="32" fill="#0769AD"/>
<path d="M49.9796 25.0371C53.3734 25.0371 56.4809 23.9052 58.8835 22.0279C56.3893 25.3143 52.2568 27.463 47.581 27.463C39.9637 27.463 33.7887 21.7609 33.7887 14.7269C33.7887 10.8269 35.6871 7.33623 38.6771 5C37.1081 7.06733 36.1874 9.58487 36.1874 12.301C36.1874 19.3349 42.3624 25.0371 49.9796 25.0371Z" fill="#78CFF5"/>
<path d="M58.752 33.7783C55.0931 36.6484 50.3563 38.3796 45.1823 38.3796C33.5908 38.3796 24.1941 29.6907 24.1941 18.9723C24.1941 14.8151 25.6077 10.9632 28.0146 7.80514C23.4763 11.365 20.5961 16.6771 20.5961 22.6111C20.5961 33.3295 29.9929 42.0185 41.5843 42.0185C48.68 42.0185 54.9532 38.7626 58.752 33.7783Z" fill="#78CFF5"/>
<path d="M59.0049 44.8792C53.7909 49.8547 46.5679 52.9352 38.586 52.9352C22.6891 52.9352 9.80219 40.7163 9.80219 25.6436C9.80219 20.8674 11.0962 16.3778 13.3698 12.4727C8.19957 17.4065 5.00488 24.2037 5.00488 31.7084C5.00488 46.7811 17.8918 59 33.7887 59C44.6483 59 54.1032 53.2979 59.0049 44.8792Z" fill="#78CFF5"/>
</svg>
