<svg width="65" height="63" viewBox="0 0 65 63" fill="none" xmlns="http://www.w3.org/2000/svg">
<ellipse cx="32.5791" cy="31.1373" rx="32" ry="31.1373" fill="#8892BF"/>
<path d="M28.7427 19.0374C28.9104 18.154 29.6825 17.5146 30.5817 17.5146C31.758 17.5146 32.6428 18.5869 32.4195 19.7418L32.3105 20.3057C32.0307 21.7531 33.1396 23.0968 34.6138 23.0968H35.2019C37.0834 23.136 38.4851 23.5452 39.4076 24.3243C40.3483 25.1035 40.625 26.5847 40.2376 28.7667L38.6784 36.9525C38.5075 37.8498 37.7229 38.499 36.8095 38.499C35.6159 38.499 34.7172 37.4128 34.9405 36.2404L36.281 29.2051C36.4653 28.2307 36.4099 27.5392 36.115 27.13C35.82 26.7209 35.1836 26.5163 34.2058 26.5163C32.4285 26.4994 30.8945 27.7585 30.5646 29.5051L29.1542 36.9721C28.9869 37.8577 28.2131 38.499 27.3119 38.499C26.1362 38.499 25.2506 37.4294 25.4699 36.2744L28.7427 19.0374Z" fill="white"/>
<path fill-rule="evenodd" clip-rule="evenodd" d="M10.3055 29.6127C11.019 25.8335 14.3207 23.0969 18.1666 23.0969H18.951C21.1274 23.1162 22.7045 23.7791 23.6823 25.0843C24.6601 26.3896 24.9827 28.1724 24.6507 30.4327C24.5218 31.4655 24.2357 32.4785 23.793 33.4722C23.3686 34.4659 22.7786 35.362 22.0222 36.161C21.0997 37.174 20.113 37.817 19.0616 38.0899C18.0102 38.3629 16.9217 38.4991 15.7967 38.4991H15.3023C13.6631 38.4991 12.2557 39.665 11.9508 41.2756L11.7163 42.5137C11.5474 43.4061 10.7676 44.0521 9.85934 44.0521C8.67497 44.0521 7.78243 42.9752 8.00217 41.8114L10.3055 29.6127ZM13.4449 35.2258C13.2614 35.2258 13.1408 35.049 13.1749 34.8687L14.6635 27.0071C14.7238 26.6886 15.0021 26.4579 15.3264 26.4579C15.5294 26.4579 15.7414 26.448 15.9627 26.4287C17.4386 26.4094 18.6649 26.5556 19.6427 26.8671C20.6388 27.1787 20.9708 28.3576 20.6388 30.4035C20.2331 32.8392 19.4396 34.2613 18.2592 34.6705C17.0789 35.0604 15.603 35.2451 13.8322 35.2258H13.4449Z" fill="white"/>
<path fill-rule="evenodd" clip-rule="evenodd" d="M51.7531 23.0969H50.9687C47.1228 23.0969 43.8211 25.8335 43.1076 29.6127L40.8043 41.8114C40.5845 42.9752 41.4771 44.0521 42.6614 44.0521C43.5697 44.0521 44.3495 43.4061 44.5184 42.5137L44.7529 41.2756C45.0578 39.665 46.4652 38.4991 48.1044 38.4991H48.5988C49.7238 38.4991 50.8123 38.3629 51.8637 38.0899C52.9151 37.817 53.9018 37.174 54.8243 36.161C55.5807 35.362 56.1707 34.4659 56.5951 33.4722C57.0378 32.4785 57.3239 31.4655 57.4528 30.4327C57.7848 28.1724 57.4622 26.3896 56.4844 25.0843C55.5066 23.7791 53.9295 23.1162 51.7531 23.0969ZM48.1284 26.4579C47.8042 26.4579 47.5259 26.6886 47.4656 27.0071L45.977 34.8687C45.9429 35.049 46.0635 35.2258 46.247 35.2258H46.6343C48.4051 35.2451 49.881 35.0604 51.0613 34.6705C52.2417 34.2613 53.0352 32.8392 53.4408 30.4035C53.7729 28.3576 53.4408 27.1787 52.4448 26.8671C51.467 26.5556 50.2407 26.4094 48.7648 26.4287C48.5435 26.448 48.3315 26.4579 48.1284 26.4579Z" fill="white"/>
</svg>
