<svg width="65" height="63" viewBox="0 0 65 63" fill="none" xmlns="http://www.w3.org/2000/svg">
<path d="M38.1586 31.0904C38.1586 28.2989 35.7599 26.0357 32.8008 26.0357C29.8419 26.0357 27.443 28.2989 27.443 31.0904C27.443 33.8822 29.8419 36.1453 32.8008 36.1453C35.7599 36.1453 38.1586 33.8822 38.1586 31.0904Z" fill="#53C1DE"/>
<path fill-rule="evenodd" clip-rule="evenodd" d="M50.2015 21.706C51.333 17.3684 52.7552 9.32462 47.7416 6.59754C42.7514 3.88235 36.2577 9.08514 32.8287 12.2081C29.4096 9.11627 22.7335 3.9357 17.724 6.67144C12.7358 9.39574 14.2741 17.3061 15.4306 21.6709C10.7774 22.9178 2.80078 25.6034 2.80078 31.0904C2.80078 36.5618 10.7691 39.4836 15.3947 40.7293C14.2339 45.1183 12.7727 52.9157 17.7673 55.6338C22.7953 58.3691 29.4508 53.3119 32.9115 50.1548C36.3625 53.2961 42.794 58.3864 47.7851 55.6606C52.7921 52.9262 51.4879 44.9902 50.3314 40.6C54.8153 39.3517 62.8008 36.4935 62.8008 31.0904C62.8008 25.6561 54.7814 22.9487 50.2015 21.706ZM49.6333 38.2735C48.8738 36.0055 47.8488 33.5938 46.595 31.1024C47.7918 28.6699 48.7769 26.2892 49.5151 24.0358C52.8725 24.9541 60.2378 27.053 60.2378 31.0904C60.2378 35.1656 53.1701 37.2844 49.6333 38.2735ZM46.5007 53.5678C42.7769 55.6014 37.2451 50.7336 34.6965 48.4202C36.3871 46.6756 38.0768 44.6474 39.7258 42.3952C42.6265 42.1525 45.3669 41.7554 47.852 41.2136C48.666 44.3188 50.2412 51.5249 46.5007 53.5678ZM19.048 53.5388C15.3236 51.5128 17.0259 44.5548 17.8799 41.3218C20.3375 41.8346 23.0579 42.2036 25.9656 42.4261C27.6254 44.6299 29.3639 46.6555 31.1159 48.4295C28.9513 50.4049 22.7898 55.5742 19.048 53.5388ZM5.36376 31.0904C5.36376 26.9999 12.6849 24.9163 16.1189 24.0002C16.8698 26.3042 17.8547 28.7132 19.0432 31.1493C17.8393 33.6216 16.8403 36.0689 16.0825 38.4C12.8082 37.5158 5.36376 35.1835 5.36376 31.0904ZM19.0082 8.76427C22.7478 6.7221 28.5502 11.6956 31.0326 13.9342C29.2896 15.7001 27.567 17.7105 25.9215 19.9015C23.0996 20.1483 20.3983 20.5446 17.915 21.0754C16.9833 17.555 15.2726 10.8042 19.0082 8.76427ZM41.5593 22.53C43.4738 22.7579 45.3079 23.0611 47.0302 23.4321C46.5132 24.9955 45.8687 26.6304 45.1098 28.3064C44.0096 26.3368 42.8285 24.407 41.5593 22.53ZM32.8295 15.6623C34.0116 16.8705 35.1957 18.2198 36.3603 19.6836C33.9978 19.5782 31.6314 19.5777 29.2689 19.6821C30.4346 18.2318 31.6287 16.8845 32.8295 15.6623ZM20.5138 28.3046C19.7674 26.6344 19.1287 24.9923 18.6072 23.4065C20.3191 23.045 22.1447 22.7497 24.0468 22.5254C22.774 24.3983 21.595 26.3275 20.5138 28.3046ZM24.1015 39.8279C22.1365 39.621 20.2833 39.3407 18.5719 38.9892C19.1017 37.3754 19.7543 35.6979 20.5167 33.9919C21.6128 35.9894 22.8098 37.9373 24.1015 39.8279ZM32.9004 46.6894C31.6855 45.4526 30.4739 44.0847 29.2904 42.6134C31.6665 42.7015 34.0471 42.7017 36.4227 42.6017C35.2544 44.0998 34.0746 45.4696 32.9004 46.6894ZM45.1342 33.905C45.9362 35.6295 46.6122 37.298 47.1491 38.8845C45.4093 39.259 43.5312 39.5606 41.5521 39.7846C42.8308 37.8721 44.0305 35.9122 45.1342 33.905ZM38.2953 40.0777C34.6611 40.3227 31.0039 40.3201 27.3684 40.0977C25.3025 37.2508 23.4637 34.2568 21.8763 31.1485C23.4559 28.0467 25.2815 25.0586 27.3376 22.2161C30.9759 21.9566 34.6364 21.956 38.2746 22.2176C40.3129 25.0599 42.1358 28.0403 43.7521 31.1142C42.1549 34.2145 40.3198 37.2086 38.2953 40.0777ZM46.4614 8.69237C50.202 10.7279 48.537 17.957 47.7198 21.1005C45.2306 20.5586 42.5275 20.1553 39.6973 19.9048C38.0486 17.69 36.3404 15.676 34.6256 13.9329C37.1398 11.6461 42.757 6.6768 46.4614 8.69237Z" fill="#53C1DE"/>
</svg>
